<svg enable-background="new 0 0 512 512" height="512" viewBox="0 0 512 512" width="512" xmlns="http://www.w3.org/2000/svg">
  <path d="m360.959 105c0-57.897-47.103-105-105-105s-105 47.103-105 105 47.103 105 105 105 105-47.103 105-105zm-105.001 75c-41.355 0-75-33.645-75-75s33.645-75 75-75c41.356 0 75 33.645 75 75s-33.644 75-75 75z"/>
  <path d="m271 98.787v-19.287c0-8.284-6.716-15-15-15s-15 6.716-15 15v25.5c0 3.979 1.581 7.793 4.394 10.606l17.5 17.5c2.929 2.929 6.768 4.394 10.606 4.394s7.678-1.464 10.606-4.394c5.858-5.858 5.858-15.355 0-21.213z"/><path d="m211 366h-15v-82c0-24.813-20.187-45-45-45h-60c-24.813 0-45 20.187-45 45v82h-15c-8.284 0-15 6.716-15 15v.102c0 41.299 33.645 74.898 75 74.898h15v26h-15c-8.284 0-15 6.716-15 15s6.716 15 15 15h29.99.01s.006 0 .01 0h29.99c8.284 0 15-6.716 15-15s-6.716-15-15-15h-15v-26h15c41.355 0 75-33.599 75-74.898v-.102c0-8.284-6.716-15-15-15zm-135-82c0-8.271 6.729-15 15-15h60c8.271 0 15 6.729 15 15v82h-90zm75 142h-60c-19.582 0-36.282-12.542-42.453-30h144.907c-6.172 17.458-22.872 30-42.454 30z"/>
  <path d="m481 366h-15v-82c0-24.813-20.187-45-45-45h-60c-24.813 0-45 20.187-45 45v82h-15c-8.284 0-15 6.716-15 15v.102c0 41.299 33.644 74.898 75 74.898h15v26h-15c-8.284 0-15 6.716-15 15s6.716 15 15 15h29.99.01s.006 0 .01 0h29.99c8.284 0 15-6.716 15-15s-6.716-15-15-15h-15v-26h15c41.355 0 75-33.599 75-74.898v-.102c0-8.284-6.716-15-15-15zm-135-82c0-8.271 6.729-15 15-15h60c8.271 0 15 6.729 15 15v82h-90zm75 142h-60c-19.582 0-36.282-12.542-42.454-30h144.908c-6.172 17.458-22.872 30-42.454 30z"/>
</svg>