<svg height="24" viewBox="0 0 64 64" width="24" xmlns="http://www.w3.org/2000/svg">
  <path d="m30 59h-1a1 1 0 0 1 0-2h1a1 1 0 0 1 0 2z"/>
  <path d="m35 59h-2a1 1 0 0 1 0-2h2a1 1 0 0 1 0 2z"/>
  <path d="m53 59h-1a1 1 0 0 1 0-2h1a1 1 0 0 1 0 2z"/>
  <path d="m58 59h-1a1 1 0 0 1 0-2h1a1 1 0 0 1 0 2z"/>
  <path d="m12 59h-6a1 1 0 0 1 0-2h6a1 1 0 0 1 0 2z"/>
  <path d="m40 21a8 8 0 1 0 -8 8 8.009 8.009 0 0 0 8-8zm-14 0a6 6 0 1 1 6 6 6.006 6.006 0 0 1 -6-6z"/>
  <path d="m31 6h2v2h-2z"/>
  <path d="m21.101 10.101h2v2h-2z" transform="matrix(.707 -.707 .707 .707 -1.376 18.879)"/>
  <path d="m17 20h2v2h-2z"/>
  <path d="m21.101 29.9h2v2h-2z" transform="matrix(.707 -.707 .707 .707 -15.376 24.678)"/>
  <path d="m31 34h2v2h-2z"/>
  <path d="m40.9 29.9h2v2h-2z" transform="matrix(.707 -.707 .707 .707 -9.577 38.678)"/>
  <path d="m45 20h2v2h-2z"/>
  <path d="m40.9 10.101h2v2h-2z" transform="matrix(.707 -.707 .707 .707 4.423 32.879)"/>
  <path d="m30 54h-1a1 1 0 0 0 0 2h1a1 1 0 0 0 0-2z"/>
  <path d="m33 56h2a1 1 0 0 0 0-2h-2a1 1 0 0 0 0 2z"/>
  <path d="m61 51h-5v-5a1 1 0 0 0 -1-1h-22v-5h3a1 1 0 0 0 1-1v-4.921c.235-.09.472-.187.711-.294l3.482 3.482a1.029 1.029 0 0 0 1.414 0l5.66-5.66a1 1 0 0 0 0-1.414l-3.482-3.483c.107-.239.2-.475.294-.71h4.921a1 1 0 0 0 1-1v-8a1 1 0 0 0 -1-1h-4.921c-.09-.235-.187-.471-.294-.71l3.482-3.483a1 1 0 0 0 0-1.414l-5.66-5.66a1 1 0 0 0 -1.414 0l-3.482 3.482c-.239-.107-.476-.2-.711-.294v-4.921a1 1 0 0 0 -1-1h-8a1 1 0 0 0 -1 1v4.921c-.235.09-.472.187-.711.294l-3.482-3.482a1.029 1.029 0 0 0 -1.414 0l-5.66 5.66a1 1 0 0 0 0 1.414l3.482 3.483c-.107.239-.2.475-.294.71h-4.921a1 1 0 0 0 -1 1v8a1 1 0 0 0 1 1h4.921c.09.235.187.471.294.71l-3.482 3.483a1 1 0 0 0 0 1.414l5.66 5.66a1 1 0 0 0 1.414 0l3.482-3.482c.239.107.476.2.711.294v4.921a1 1 0 0 0 1 1h3v5h-22a1 1 0 0 0 -1 1v5h-5a1 1 0 0 0 -1 1v9a1 1 0 0 0 1 1h12a1 1 0 0 0 1-1v-9a1 1 0 0 0 -1-1h-5v-4h21v4h-5a1 1 0 0 0 -1 1v9a1 1 0 0 0 1 1h12a1 1 0 0 0 1-1v-9a1 1 0 0 0 -1-1h-5v-4h21v4h-5a1 1 0 0 0 -1 1v9a1 1 0 0 0 1 1h12a1 1 0 0 0 1-1v-9a1 1 0 0 0 -1-1zm-32.7-18.583a12.323 12.323 0 0 1 -1.776-.731 1 1 0 0 0 -1.154.187l-3.27 3.273-4.246-4.246 3.273-3.273a1 1 0 0 0 .187-1.154 12.328 12.328 0 0 1 -.731-1.776 1 1 0 0 0 -.953-.7h-4.63v-5.997h4.63a1 1 0 0 0 .953-.7 12.328 12.328 0 0 1 .731-1.776 1 1 0 0 0 -.187-1.154l-3.273-3.27 4.246-4.246 3.273 3.273a1 1 0 0 0 1.154.187 12.323 12.323 0 0 1 1.773-.731 1 1 0 0 0 .7-.953v-4.63h6v4.63a1 1 0 0 0 .7.953 12.323 12.323 0 0 1 1.776.731 1 1 0 0 0 1.154-.187l3.27-3.273 4.246 4.246-3.273 3.273a1 1 0 0 0 -.187 1.154 12.328 12.328 0 0 1 .731 1.776 1 1 0 0 0 .953.7h4.63v6h-4.63a1 1 0 0 0 -.953.7 12.328 12.328 0 0 1 -.731 1.776 1 1 0 0 0 .187 1.154l3.273 3.267-4.246 4.246-3.273-3.273a1 1 0 0 0 -1.154-.187 12.323 12.323 0 0 1 -1.776.731 1 1 0 0 0 -.7.953v4.63h-5.997v-4.63a1 1 0 0 0 -.7-.953zm-14.3 27.583h-10v-7h10zm23 0h-10v-7h10zm23 0h-10v-7h10z"/><path d="m53 54h-1a1 1 0 0 0 0 2h1a1 1 0 0 0 0-2z"/><path d="m57 56h1a1 1 0 0 0 0-2h-1a1 1 0 0 0 0 2z"/><path d="m5 55a1 1 0 0 0 1 1h6a1 1 0 0 0 0-2h-6a1 1 0 0 0 -1 1z"/><path d="m57 4h-2.184a3 3 0 1 0 0 2h2.184a3 3 0 0 1 3 3v27a3 3 0 0 1 -3 3h-3.184a3 3 0 1 0 0 2h3.184a5.006 5.006 0 0 0 5-5v-27a5.006 5.006 0 0 0 -5-5zm-5 2a1 1 0 1 1 1-1 1 1 0 0 1 -1 1zm-1 35a1 1 0 1 1 1-1 1 1 0 0 1 -1 1z"/><path d="m7 41h3.184a3 3 0 1 0 0-2h-3.184a3 3 0 0 1 -3-3v-27a3 3 0 0 1 3-3h2.184a3 3 0 1 0 0-2h-2.184a5.006 5.006 0 0 0 -5 5v27a5.006 5.006 0 0 0 5 5zm6-2a1 1 0 1 1 -1 1 1 1 0 0 1 1-1zm-1-35a1 1 0 1 1 -1 1 1 1 0 0 1 1-1z"/>
</svg>