<?xml version="1.0" encoding="iso-8859-1"?>
<!-- Generator: Adobe Illustrator 16.0.0, SVG Export Plug-In . SVG Version: 6.00 Build 0)  -->
<!DOCTYPE svg PUBLIC "-//W3C//DTD SVG 1.1//EN" "http://www.w3.org/Graphics/SVG/1.1/DTD/svg11.dtd">
<svg version="1.1" id="Capa_1" xmlns="http://www.w3.org/2000/svg" xmlns:xlink="http://www.w3.org/1999/xlink" x="0px" y="0px"
	 width="41.627px" height="41.627px" viewBox="0 0 41.627 41.627" style="enable-background:new 0 0 41.627 41.627;"
	 xml:space="preserve">
<g>
	<g>
		<path d="M23.306,12.349c-1.938,0-3.442,2.116-3.723,5.06H5.19c-0.552,0-1,0.448-1,1c0,0.552,0.448,1,1,1h1.693v2.102
			c0,0.552,0.448,1,1,1c0.552,0,1-0.448,1-1v-2.102h1.754v2.51c0,0.551,0.448,1,1,1c0.552,0,1-0.449,1-1v-2.51h6.946
			c0.281,2.943,1.785,5.061,3.723,5.061c2.152,0,3.774-2.605,3.774-6.061S25.458,12.349,23.306,12.349z M23.306,22.467
			c-0.724,0-1.774-1.582-1.774-4.06c0-2.478,1.051-4.06,1.774-4.06c0.724,0,1.774,1.582,1.774,4.06
			C25.08,20.885,24.029,22.467,23.306,22.467z"/>
		<path d="M31.597,18.408c0-8.711-7.087-15.799-15.798-15.799S0,9.696,0,18.408s7.087,15.799,15.799,15.799
			c4.69,0,8.896-2.066,11.792-5.322l1.704,1.332c-0.094,0.683,0.16,1.394,0.742,1.849l8.359,6.528
			c0.365,0.285,0.799,0.424,1.229,0.424c0.595,0,1.184-0.264,1.578-0.77c0.68-0.871,0.525-2.127-0.346-2.807l-8.358-6.527
			c-0.582-0.455-1.333-0.529-1.974-0.272l-1.691-1.322C30.574,24.779,31.597,21.713,31.597,18.408z M15.799,32.207
			C8.19,32.207,2,26.017,2,18.408C2,10.799,8.19,4.609,15.799,4.609c7.607,0,13.798,6.19,13.798,13.799
			C29.597,26.017,23.406,32.207,15.799,32.207z"/>
	</g>
</g>
<g>
</g>
<g>
</g>
<g>
</g>
<g>
</g>
<g>
</g>
<g>
</g>
<g>
</g>
<g>
</g>
<g>
</g>
<g>
</g>
<g>
</g>
<g>
</g>
<g>
</g>
<g>
</g>
<g>
</g>
</svg>
